<svg xmlns="http://www.w3.org/2000/svg" viewBox="0 0 512 512">
<defs>
  <linearGradient id="bg" x1="40" y1="30" x2="470" y2="490" gradientUnits="userSpaceOnUse"><stop stop-color="#7c3aed"/><stop offset=".52" stop-color="#0ea5e9"/><stop offset="1" stop-color="#ec4899"/></linearGradient>
  <radialGradient id="glow"><stop stop-color="#fff" stop-opacity=".36"/><stop offset="1" stop-color="#fff" stop-opacity="0"/></radialGradient>
</defs>
<rect width="512" height="512" rx="126" fill="#090d22"/>
<rect x="18" y="18" width="476" height="476" rx="112" fill="url(#bg)"/>
<circle cx="256" cy="244" r="180" fill="url(#glow)" opacity=".45"/>
<g fill="none" stroke="#fff" stroke-opacity=".34" stroke-width="8">
  <ellipse cx="256" cy="250" rx="174" ry="76" transform="rotate(28 256 250)"/>
  <ellipse cx="256" cy="250" rx="174" ry="76" transform="rotate(-37 256 250)"/>
  <circle cx="256" cy="250" r="126" stroke-opacity=".18"/>
</g>
<g>
  <rect x="154" y="148" width="204" height="204" rx="66" fill="#0b1029" fill-opacity=".88" stroke="#fff" stroke-opacity=".26" stroke-width="5"/>
  <path d="M205 204v98h59v-25h-30v-73h-29Zm74 0v98h29v-38h25v38h29v-98h-29v35h-25v-35h-29Z" fill="#fff"/>
</g>
<circle cx="405" cy="134" r="14" fill="#fff" fill-opacity=".88"/>
<circle cx="104" cy="346" r="10" fill="#fff" fill-opacity=".62"/>
</svg>